<?xml version="1.0" standalone="no"?>
<!DOCTYPE svg PUBLIC "-//W3C//DTD SVG 20010904//EN"
 "http://www.w3.org/TR/2001/REC-SVG-20010904/DTD/svg10.dtd">
<svg version="1.0" xmlns="http://www.w3.org/2000/svg"
 width="500.000000pt" height="500.000000pt" viewBox="0 0 500.000000 500.000000"
 preserveAspectRatio="xMidYMid meet">

<g transform="translate(0.000000,500.000000) scale(0.100000,-0.100000)"
fill="#000000" stroke="none">
<path d="M484 4191 c-118 -34 -195 -98 -240 -201 -29 -67 -27 -209 4 -271 37
-75 87 -125 160 -161 61 -30 75 -33 157 -33 107 0 158 19 230 86 174 161 133
448 -80 552 -42 21 -140 49 -163 46 -4 0 -34 -8 -68 -18z"/>
<path d="M1270 3961 c0 -258 7 -326 42 -394 28 -56 92 -115 157 -146 l56 -26
528 -3 c512 -3 528 -3 505 -21 -13 -10 -113 -79 -223 -153 -110 -74 -326 -219
-480 -323 -361 -243 -416 -284 -465 -346 -186 -235 -233 -565 -116 -804 60
-122 134 -189 262 -237 l59 -23 1090 0 1090 0 3 230 c4 317 -10 383 -98 479
-49 53 -112 85 -192 97 -36 5 -266 8 -536 7 -259 -2 -472 0 -472 4 0 4 80 61
178 128 97 67 285 196 417 286 132 91 294 202 360 246 148 100 231 178 301
285 82 122 116 222 122 358 4 95 1 125 -22 218 -31 128 -52 173 -114 240 -55
58 -104 91 -181 121 -56 21 -58 21 -1163 24 l-1108 3 0 -250z"/>
<path d="M4359 2177 c-103 -29 -181 -96 -228 -197 -21 -46 -26 -69 -25 -140 0
-103 20 -156 90 -230 69 -74 138 -103 244 -104 73 -1 94 3 145 27 219 102 270
382 101 551 -84 84 -220 123 -327 93z"/>
<path d="M2555 1178 c-113 -40 -166 -167 -115 -274 50 -103 189 -141 313 -86
l47 21 0 80 0 81 -55 0 -55 0 0 -50 0 -50 -45 0 c-63 0 -95 32 -95 92 0 24 6
50 13 59 33 42 99 51 141 18 l27 -21 38 34 c22 18 38 37 37 43 -2 5 -26 22
-55 37 -58 30 -137 37 -196 16z"/>
<path d="M1260 1135 l0 -45 80 0 c48 0 80 -4 80 -10 0 -6 -36 -52 -80 -102
-73 -85 -80 -96 -80 -135 l0 -43 173 2 172 3 0 45 0 45 -87 3 c-49 1 -88 5
-88 8 0 3 38 50 85 105 71 83 85 106 85 134 l0 35 -170 0 -170 0 0 -45z"/>
<path d="M1650 990 l0 -190 161 0 160 0 -3 48 -3 47 -98 3 c-95 3 -98 3 -95
25 3 20 9 22 86 25 l82 3 0 44 0 44 -82 3 c-75 3 -83 5 -83 23 0 18 8 20 93
23 l92 3 0 44 0 45 -155 0 -155 0 0 -190z"/>
<path d="M2022 993 l3 -188 63 -3 62 -3 0 51 c0 42 3 50 19 50 12 0 31 -19 51
-50 l32 -50 70 0 69 0 -40 56 -41 57 35 38 c30 34 35 46 35 88 0 39 -6 56 -27
82 -42 49 -77 59 -213 59 l-120 0 2 -187z m202 87 c20 -7 26 -16 26 -40 0 -33
-26 -50 -76 -50 -22 0 -24 4 -24 43 0 24 3 47 7 50 9 10 38 9 67 -3z"/>
<path d="M2906 998 c-44 -101 -81 -186 -83 -190 -2 -5 25 -8 61 -8 l65 0 12
35 13 35 76 0 76 0 13 -35 12 -35 65 0 c36 0 64 4 62 9 -1 4 -39 90 -83 190
l-80 181 -65 0 -65 0 -79 -182z m166 7 l17 -45 -39 0 -39 0 16 45 c8 25 18 45
22 45 4 0 14 -20 23 -45z"/>
<path d="M3263 1168 c2 -7 31 -93 63 -190 l59 -178 67 0 67 0 31 97 c17 54 33
99 35 101 2 2 18 -42 35 -97 l31 -101 67 0 68 0 29 88 c15 48 43 133 61 190
l32 103 -61 -3 -61 -3 -31 -97 c-32 -105 -40 -119 -48 -91 -3 10 -17 58 -32
106 l-26 88 -61 -3 -61 -3 -30 -97 c-17 -54 -34 -98 -38 -98 -4 0 -21 45 -39
100 l-31 100 -65 0 c-49 0 -65 -3 -61 -12z"/>
</g>
</svg>
